Coordinates
version=1
nRows=19
nColumns=24
inDegrees=yes

Units are S.I. units (second, meters, Newtons, ...)
Angles are in degrees.

endheader
time	pelvis_tilt	pelvis_list	pelvis_rotation	pelvis_tx	pelvis_ty	pelvis_tz	hip_flexion_r	hip_adduction_r	hip_rotation_r	knee_angle_r	ankle_angle_r	subtalar_angle_r	mtp_angle_r	hip_flexion_l	hip_adduction_l	hip_rotation_l	knee_angle_l	ankle_angle_l	subtalar_angle_l	mtp_angle_l	lumbar_extension	lumbar_bending	lumbar_rotation
      1.14416667	     -0.69275656	      1.92854670	     -6.41438276	      0.11178041	      1.04868525	      0.26857692	     18.12913280	     -5.11807609	     -3.24422124	    -74.47835848	      4.63666942	     -0.24826230	      9.78734947	     19.12985864	      1.60888265	     -1.37716900	    -28.25705466	     15.88594500	      5.45620036	      2.84717358	    -13.13763670	     -3.50390745	      1.65689385
      1.14833333	     -0.65559838	      1.83199249	     -6.45433648	      0.11742382	      1.05037169	      0.26869495	     18.61376354	     -4.89866922	     -3.35947126	    -74.09874309	      4.94004863	      0.01699008	      9.79004960	     18.49648917	      1.52227408	     -1.45116786	    -27.78972669	     16.05147235	      5.60385468	      2.86733487	    -13.16027650	     -3.41128567	      1.60957120
      1.15250000	     -0.63659047	      1.71474894	     -6.49237539	      0.12304854	      1.05199848	      0.26882868	     19.10060726	     -4.64627941	     -3.47788049	    -73.65111898	      5.25143960	      0.27385636	      9.80039452	     17.88429663	      1.41092079	     -1.52334857	    -27.32791979	     16.19665085	      5.71581223	      2.88305655	    -13.17065503	     -3.28997576	      1.57103309
      1.15666667	     -0.60234453	      1.60922499	     -6.52319674	      0.12868793	      1.05364515	      0.26895959	     19.55216592	     -4.41132855	     -3.60332688	    -73.13426671	      5.56183440	      0.56505308	      9.81649093	     17.24562103	      1.31623332	     -1.59146976	    -26.83938553	     16.33308161	      5.84311179	      2.89959134	    -13.19539641	     -3.17964582	      1.52478549
      1.16083333	     -0.57076241	      1.50995385	     -6.54780933	      0.13432025	      1.05524246	      0.26907745	     19.99364823	     -4.18542167	     -3.73377781	    -72.55963401	      5.86658480	      0.86375210	      9.83753481	     16.60898425	      1.23148652	     -1.65290019	    -26.34345450	     16.46278665	      5.96273020	      2.91679312	    -13.22196412	     -3.07845073	      1.47389337
      1.16500000	     -0.52851154	      1.41005830	     -6.56563537	      0.13994502	      1.05682603	      0.26920407	     20.40538684	     -3.95783589	     -3.86783649	    -71.92270951	      6.16861263	      1.16404550	      9.86352963	     15.95809233	      1.14919838	     -1.70635154	    -25.83690492	     16.58513826	      6.07871051	      2.93517862	    -13.25953725	     -2.98021636	      1.41796178
      1.16916667	     -0.47674804	      1.30902592	     -6.57283866	      0.14557308	      1.05837356	      0.26930432	     20.78912823	     -3.73823079	     -4.01814874	    -71.22948461	      6.46629284	      1.46317910	      9.90113650	     15.29767143	      1.07009180	     -1.75627928	    -25.32961359	     16.71782030	      6.20534812	      2.96127921	    -13.31038642	     -2.86842311	      1.34736932
      1.17333333	     -0.45921768	      1.19715912	     -6.57764853	      0.15119455	      1.05983259	      0.26942147	     21.19103290	     -3.49431928	     -4.16135433	    -70.47309791	      6.75661126	      1.74548597	      9.93261707	     14.67861455	      0.97455476	     -1.80024769	    -24.83032867	     16.80920947	      6.29590164	      2.97873756	    -13.32020678	     -2.74673696	      1.29899330
      1.17750000	     -0.42446157	      1.10378674	     -6.57546615	      0.15681214	      1.06125115	      0.26952513	     21.56327758	     -3.28023778	     -4.31074067	    -69.67287382	      7.05232155	      2.04093473	      9.96944985	     14.04025210	      0.90425708	     -1.83662361	    -24.32051329	     16.91082887	      6.39071064	      2.99840936	    -13.35147860	     -2.63966385	      1.23459340
      1.18166667	     -0.38898015	      1.00612446	     -6.56664849	      0.16242623	      1.06263400	      0.26961806	     21.91561460	     -3.06259005	     -4.46198170	    -68.81509691	      7.33314359	      2.31123073	     10.00586201	     13.40186988	      0.83214050	     -1.86453134	    -23.80791206	     16.99720160	      6.47051994	      3.01643378	    -13.38557997	     -2.52795724	      1.17104469
      1.18583333	     -0.33775124	      0.92132917	     -6.55232727	      0.16802801	      1.06395911	      0.26970204	     22.23970621	     -2.86625425	     -4.61512347	    -67.91706540	      7.60927814	      2.58009012	     10.05775841	     12.74911931	      0.77795570	     -1.88355953	    -23.29239888	     17.10482790	      6.55492586	      3.04363997	    -13.44076238	     -2.42711391	      1.07911594
      1.19000000	     -0.32183537	      0.81707892	     -6.52734485	      0.17363740	      1.06519109	      0.26977132	     22.57772329	     -2.64472829	     -4.77510141	    -66.95598512	      7.86444530	      2.82159594	     10.10770717	     12.14327967	      0.69941042	     -1.89496668	    -22.79787043	     17.19298159	      6.62595767	      3.06870228	    -13.45323195	     -2.30001132	      1.00457261
      1.19416667	     -0.33761208	      0.72045283	     -6.50220291	      0.17922926	      1.06627857	      0.26985843	     22.94054233	     -2.42315279	     -4.92128828	    -65.95677344	      8.11920389	      3.03488709	     10.14480135	     11.58366191	      0.62239841	     -1.91364880	    -22.32175984	     17.25775667	      6.68786645	      3.08567849	    -13.43317233	     -2.18403512	      0.94609834
      1.19833333	     -0.31231321	      0.62829321	     -6.46734191	      0.18481310	      1.06737297	      0.26992472	     23.24035371	     -2.22165369	     -5.07894170	    -64.90903415	      8.36808049	      3.25878880	     10.18882312	     10.98048883	      0.55822532	     -1.91901563	    -21.84002182	     17.34438001	      6.75138339	      3.10690356	    -13.46367886	     -2.06709372	      0.86228475
      1.20250000	     -0.33323299	      0.55067433	     -6.43678601	      0.19039831	      1.06830465	      0.27000065	     23.58190769	     -2.02607478	     -5.21633230	    -63.82786372	      8.60256193	      3.44676110	     10.22543808	     10.43585868	      0.50357126	     -1.92832628	    -21.37046311	     17.41515625	      6.80478594	      3.12409271	    -13.43802454	     -1.96656807	      0.78936539
      1.20666667	     -0.29466250	      0.48165536	     -6.39637374	      0.19595446	      1.06926199	      0.27004987	     23.84541590	     -1.85764445	     -5.36167514	    -62.70697142	      8.82933861	      3.64357044	     10.29119610	      9.82778458	      0.47036982	     -1.91245385	    -20.89271814	     17.50776200	      6.85028497	      3.15747348	    -13.49188740	     -1.87411590	      0.66083050
      1.21083333	     -0.34703416	      0.40569480	     -6.35843967	      0.20151865	      1.06998419	      0.27013095	     24.19089572	     -1.66246294	     -5.49171187	    -61.54138394	      9.04367222	      3.79997750	     10.32519905	      9.33894557	      0.41089256	     -1.92479338	    -20.46020171	     17.56711410	      6.89191064	      3.17378116	    -13.42940272	     -1.77025525	      0.60747295
      1.21500000	     -0.34882395	      0.33388467	     -6.30655199	      0.20706426	      1.07071383	      0.27016677	     24.46480039	     -1.49253951	     -5.63514719	    -60.33611607	      9.24292377	      3.96985150	     10.38618074	      8.79816729	      0.36810157	     -1.90673123	    -20.02525164	     17.67038037	      6.94065240	      3.20604612	    -13.43918640	     -1.66673075	      0.48771137
      1.21916667	     -0.40399962	      0.27589917	     -6.27027482	      0.21260496	      1.07127157	      0.27025976	     24.78780043	     -1.31726703	     -5.74218916	    -59.09675575	      9.44129629	      4.10608256	     10.42124023	      8.32814870	      0.32646636	     -1.91981525	    -19.61463531	     17.72550326	      6.97786745	      3.22350093	    -13.37941776	     -1.58447610	      0.42648148
